# xmcd CD database file
#
# Track frame offsets:
#	150
#	9437
#	21171
#	37453
#	49050
#	61233
#	74490
#	95998
#	110618
#	129237
#	143183
#	156666
#	168879
#	183300
#	202109
#	213691
#	233337
#	247695
#	261827
#	273685
#	283641
#	298860
#
# Disc length: 4174 seconds
#
# Revision: 2
# Processed by: cddbd v1.4b41PL1 Copyright (c) Steve Scherf et al.
# Submitted via: Feurio! 1.50.2ß - http://www.feurio.com
#
DISCID=59104c16
DTITLE=Various Artist - Romantic Collevtion Vol 3
DYEAR=1900
DGENRE=
TTITLE0=The Beatles - Yesterday
TTITLE1=The Platters - Only You
TTITLE2=Louis Armstrong - Go Down Moses
TTITLE3=Frank Sinatra - Strangers In The Night
TTITLE4=Glen Miller Orchestra - Moonlignt Serenage
TTITLE5=The Doors - Spanish Caravan
TTITLE6=Black - Wonderfull Life
TTITLE7=The Smoke - I'll Meet You At Midnight
TTITLE8=Garry Moore - Still Got The Blues
TTITLE9=Simon And Garfunkel - El Condor Pasa
TTITLE10=Richard Clavderman - Theme From The Love Story
TTITLE11=Joe Dassin - A Toi
TTITLE12=Kate Bush - Army Dreams
TTITLE13=Julio Iglesias - Mammy Blue
TTITLE14=Paul Mauriat - Love Is Blue
TTITLE15=Boy George - Do You Really Want To Hurt Me
TTITLE16=Lion - Ritchie Lady
TTITLE17=Overkill - Girl You'll Be A Woman Soon...
TTITLE18=Nino Rota - Love Theme Godfather
TTITLE19=Richard Nelson - Love Some Town
TTITLE20=Cretu - Your Favorite Toy
TTITLE21=The Royal Philarmonic Orchestra - Yesterday
EXTD=
EXTT0=
EXTT1=
EXTT2=
EXTT3=
EXTT4=
EXTT5=
EXTT6=
EXTT7=
EXTT8=
EXTT9=
EXTT10=
EXTT11=
EXTT12=
EXTT13=
EXTT14=
EXTT15=
EXTT16=
EXTT17=
EXTT18=
EXTT19=
EXTT20=
EXTT21=
PLAYORDER=
